<svg fill="#edaf11" height="200px" width="200px" version="1.1" id="Capa_1" xmlns="http://www.w3.org/2000/svg" xmlns:xlink="http://www.w3.org/1999/xlink" viewBox="-61.2 -61.2 734.40 734.40" xml:space="preserve" stroke="#edaf11" stroke-width="0.0061200000000000004"><g id="SVGRepo_bgCarrier" stroke-width="0"></g><g id="SVGRepo_tracerCarrier" stroke-linecap="round" stroke-linejoin="round" stroke="#000000" stroke-width="35.495999999999995"> <g> <g> <path d="M580.009,67.678h-49.464V18.213C530.545,8.154,522.39,0,512.331,0H31.992C21.934,0,13.779,8.154,13.779,18.213v507.896 c0,10.058,8.155,18.213,18.213,18.213h49.466v49.464c0,10.058,8.155,18.213,18.213,18.213h480.336 c10.061,0,18.213-8.155,18.213-18.213V85.891C598.222,75.833,590.07,67.678,580.009,67.678z M86.793,270.65 c-3.417,3.415-5.335,8.049-5.335,12.877v224.367H50.206V36.427h443.912v31.251H297.309c-4.831,0-9.462,1.92-12.878,5.337 L86.793,270.65z M279.096,129.863v135.453H143.643L279.096,129.863z M561.796,575.573H117.885V301.742h179.424 c10.058,0,18.215-8.155,18.215-18.213V104.235c0-0.044-0.006-0.087-0.006-0.131h246.278V575.573z"></path> </g> </g> </g><g id="SVGRepo_iconCarrier"> <g> <g> <path d="M580.009,67.678h-49.464V18.213C530.545,8.154,522.39,0,512.331,0H31.992C21.934,0,13.779,8.154,13.779,18.213v507.896 c0,10.058,8.155,18.213,18.213,18.213h49.466v49.464c0,10.058,8.155,18.213,18.213,18.213h480.336 c10.061,0,18.213-8.155,18.213-18.213V85.891C598.222,75.833,590.07,67.678,580.009,67.678z M86.793,270.65 c-3.417,3.415-5.335,8.049-5.335,12.877v224.367H50.206V36.427h443.912v31.251H297.309c-4.831,0-9.462,1.92-12.878,5.337 L86.793,270.65z M279.096,129.863v135.453H143.643L279.096,129.863z M561.796,575.573H117.885V301.742h179.424 c10.058,0,18.215-8.155,18.215-18.213V104.235c0-0.044-0.006-0.087-0.006-0.131h246.278V575.573z"></path> </g> </g> </g></svg>